<svg width="1200" height="1200" viewBox="0 0 1200 1200" fill="none" xmlns="http://www.w3.org/2000/svg">
<g clip-path="url(#clip0_364_200)">
<g filter="url(#filter0_i_364_200)">
<path fill-rule="evenodd" clip-rule="evenodd" d="M492.536 152.284C342.262 208.922 252.148 263.966 219.964 421.302C196.747 534.799 211.277 681.54 244.142 792.628C280.151 914.34 269.697 1023.32 379.128 1087.63C494.478 1141.46 660.104 1069.05 779.827 1013.59C889.247 962.905 938.193 902.824 987.168 792.628C1034.65 685.786 1020.32 567.215 987.168 455.095C952.097 336.486 932.997 236.767 832.761 164.304C702.538 70.1628 642.898 95.6139 492.536 152.284Z" fill="#EECAA7"/>
</g>
<g filter="url(#filter1_i_364_200)">
<path fill-rule="evenodd" clip-rule="evenodd" d="M525.432 196.756C389.759 238.83 275.314 279.49 238.591 416.709C212.1 515.695 249.154 649.21 272.308 749.03C297.676 858.396 282.692 954.067 375.918 1016.62C474.924 1070.24 624.029 1048.78 732.666 1006.13C831.953 967.159 879.299 882.969 928.359 788.257C975.925 696.429 999.276 593.496 975.924 492.75C951.22 386.174 909.875 294.603 825.198 225.331C715.188 135.334 661.185 154.657 525.432 196.756Z" fill="#EDA679"/>
</g>
<g filter="url(#filter2_i_364_200)">
<path fill-rule="evenodd" clip-rule="evenodd" d="M562.137 261.156C458.627 293.255 371.313 324.276 343.296 428.966C323.085 504.486 351.355 606.349 369.02 682.505C388.374 765.944 376.942 838.935 448.068 886.661C523.603 927.569 637.36 911.193 720.243 878.658C795.993 848.923 832.115 784.692 869.544 712.433C905.834 642.374 923.65 563.843 905.833 486.98C886.986 405.669 855.442 335.807 790.839 282.956C706.909 214.295 665.708 229.037 562.137 261.156Z" fill="#EB8069"/>
</g>
<mask id="mask0_364_200" style="mask-type:alpha" maskUnits="userSpaceOnUse" x="208" y="101" width="810" height="1006">
<path fill-rule="evenodd" clip-rule="evenodd" d="M492.536 152.284C342.262 208.922 252.148 263.966 219.964 421.302C196.747 534.799 211.277 681.54 244.142 792.628C280.151 914.34 269.697 1023.32 379.128 1087.63C494.478 1141.46 660.104 1069.05 779.827 1013.59C889.247 962.905 938.193 902.824 987.168 792.628C1034.65 685.786 1020.32 567.215 987.168 455.095C952.097 336.486 932.997 236.767 832.761 164.304C702.538 70.1628 642.898 95.6139 492.536 152.284Z" fill="#EECAA7"/>
</mask>
<g mask="url(#mask0_364_200)">
<g filter="url(#filter3_d_364_200)">
<g filter="url(#filter4_d_364_200)">
<path d="M566.002 570.311L560.002 521.311L652.502 465.311L677.002 470.811L672.502 502.311L633.502 532.811L573.002 585.311L566.002 570.311Z" fill="#12302C"/>
</g>
<g filter="url(#filter5_di_364_200)">
<path d="M672.502 485.311C671.702 482.911 668.169 476.978 666.502 474.311H671.002L706.002 461.311L729.002 448.811V468.311L723.002 496.811L714.002 562.811L682.002 566.311L654.002 557.311L650.502 543.811L645.002 523.311L652.502 512.311C656.502 509.144 665.102 502.011 667.502 498.811C670.502 494.811 673.502 488.311 672.502 485.311Z" fill="#CB9D58"/>
</g>
<g filter="url(#filter6_d_364_200)">
<path d="M356.002 925.811C356.002 923.011 354.002 919.644 353.002 918.311L382.002 914.811V936.811C381.669 946.144 380.502 964.611 378.502 963.811C376.002 962.811 366.502 958.311 366.502 955.811C366.502 953.311 366.002 947.811 364.502 944.311C363.002 940.811 357.002 937.811 356.002 935.811C355.002 933.811 356.002 929.311 356.002 925.811Z" fill="#EDBE78"/>
</g>
<g filter="url(#filter7_d_364_200)">
<path d="M352.002 919.311V901.311L369.502 884.311L467.002 807.811L457.502 863.811L405.502 921.811C395.502 923.311 373.402 925.811 365.002 923.811C356.602 921.811 352.835 919.978 352.002 919.311Z" fill="#0F2825"/>
</g>
<g filter="url(#filter8_d_364_200)">
<path d="M302.502 1107.31L389.002 961.311L513.002 998.811L509.002 1107.31H302.502Z" fill="#223354"/>
</g>
<g filter="url(#filter9_d_364_200)">
<path d="M346.002 904.811C344.502 901.311 339.502 890.811 337.002 881.811C336.835 877.978 336.602 869.911 337.002 868.311C337.502 866.311 339.002 866.311 339.002 862.311C339.002 858.311 335.002 854.311 335.002 852.311C335.002 850.311 335.502 842.811 335.002 839.311C334.502 835.811 333.002 822.811 333.502 819.311C334.002 815.811 336.502 809.811 336.502 808.311V800.811C336.502 796.311 338.002 782.311 339.002 773.811C340.002 765.311 343.002 743.811 342.502 741.811C342.002 739.811 340.502 735.311 341.002 730.311C341.502 725.311 348.002 718.311 352.502 713.311C357.002 708.311 372.002 697.811 373.502 693.811C375.002 689.811 376.502 678.311 379.502 675.311C382.502 672.311 404.502 663.811 404.502 662.311C404.502 660.811 401.002 656.811 401.002 655.311C401.002 653.811 400.002 647.311 401.002 644.811C402.002 642.311 407.002 637.311 411.502 633.811C415.102 631.011 428.002 622.978 434.002 619.311L438.502 618.811L442.502 630.811V707.311L448.502 764.311L473.002 782.311L494.002 820.311L471.502 815.811L438.502 829.311C432.169 834.811 418.802 846.711 416.002 850.311C412.502 854.811 406.502 860.311 403.002 863.811C399.502 867.311 396.002 870.311 392.502 874.311C389.002 878.311 381.502 886.811 378.502 890.811C375.502 894.811 368.502 901.311 365.002 904.811C362.202 907.611 355.169 915.978 352.002 919.811C351.669 919.311 350.802 917.911 350.002 916.311C349.002 914.311 347.502 908.311 346.002 904.811Z" fill="#2B6555"/>
</g>
<g filter="url(#filter10_d_364_200)">
<path d="M366.002 985.311C372.402 979.711 381.002 974.644 384.502 972.811L392.502 995.811C397.169 1010.31 406.402 1039.91 406.002 1042.31C405.502 1045.31 403.002 1049.31 403.002 1051.81C403.002 1054.31 405.002 1059.31 404.502 1061.81C404.002 1064.31 400.002 1064.81 399.002 1068.31C398.002 1071.81 400.002 1072.81 399.002 1074.31C398.002 1075.81 394.502 1075.81 394.002 1078.31C393.502 1080.81 394.502 1083.81 392.502 1085.31C390.502 1086.81 389.502 1082.81 388.502 1086.31C387.702 1089.11 389.502 1096.81 390.502 1100.31H284.002C284.002 1099.48 284.402 1096.61 286.002 1091.81C288.002 1085.81 292.002 1079.81 295.002 1077.31C298.002 1074.81 302.502 1069.81 308.002 1064.81C313.502 1059.81 320.502 1053.31 322.502 1051.81C324.502 1050.31 323.502 1048.31 322.502 1048.81C321.502 1049.31 319.002 1050.31 319.002 1049.31C319.002 1048.31 321.002 1046.81 324.502 1043.31C328.002 1039.81 339.002 1032.31 338.002 1030.31C337.002 1028.31 323.502 1035.81 319.002 1038.31C314.502 1040.81 305.502 1046.81 305.002 1046.31C304.502 1045.81 308.002 1042.31 310.502 1039.81C313.002 1037.31 319.502 1031.81 321.502 1030.31C323.502 1028.81 330.002 1024.31 334.002 1021.81C338.002 1019.31 344.502 1015.81 345.002 1014.31C345.502 1012.81 342.502 1014.01 340.502 1014.81C338.002 1015.81 336.002 1017.31 333.502 1018.81C331.502 1020.01 322.502 1025.31 322.002 1024.81C321.502 1024.31 325.502 1021.31 327.002 1020.31C328.502 1019.31 337.002 1013.31 340.502 1010.81C344.002 1008.31 345.002 1006.81 344.502 1006.31C344.002 1005.81 341.502 1005.81 338.002 1006.81C334.502 1007.81 331.002 1009.81 332.502 1007.81C334.002 1005.81 347.502 998.811 350.002 997.311C352.502 995.811 358.002 992.311 366.002 985.311Z" fill="#E99C44"/>
</g>
<g filter="url(#filter11_d_364_200)">
<path d="M769.002 947.811V918.811L608.002 967.811L482.502 1030.81L480.502 1075.81L473.002 1101.31L755.002 1103.31C758.502 1096.14 765.802 1081.11 767.002 1078.31C768.502 1074.81 772.002 1063.81 772.502 1052.81C773.002 1041.81 769.002 1021.31 767.002 1011.31C765.402 1003.31 763.669 989.644 763.002 983.811C765.002 974.311 769.002 953.811 769.002 947.811Z" fill="#1E3C38"/>
</g>
<g filter="url(#filter12_d_364_200)">
<path d="M815.121 405.045C811.542 389.644 808.937 365.63 810.326 354.377L779.093 435.818L769.653 493.69L801.982 523.837C820.76 537.817 858.493 563.884 859.202 556.317C860.088 546.858 858.049 531.099 855.497 520.816C852.945 510.533 846.363 484.305 840.513 471.704C835.882 461.729 818.7 420.446 815.121 405.045Z" fill="#431718"/>
</g>
<g filter="url(#filter13_d_364_200)">
<path d="M641.002 515.311C643.802 512.911 648.502 511.311 650.502 510.811L644.502 525.811L650.502 552.811L673.502 566.311H718.502L680.002 626.811L650.502 675.811L654.502 736.811L633.502 769.811L607.502 751.811L576.002 719.311V669.311L565.502 622.811L571.502 581.811C574.335 578.978 580.502 572.711 582.502 570.311C585.002 567.311 591.502 565.811 594.002 563.311C596.502 560.811 607.002 550.811 611.002 546.811C615.002 542.811 630.002 527.811 631.502 525.811C633.002 523.811 637.502 518.311 641.002 515.311Z" fill="#4E4231"/>
</g>
<g filter="url(#filter14_d_364_200)">
<path d="M635.002 671.811C639.002 659.811 705.002 556.144 737.502 505.811L761.502 473.311C768.669 478.311 784.802 490.611 792.002 499.811C796.098 505.045 824.248 517.665 845.002 530.311C860.729 539.893 870.502 547.811 878.502 554.811C873.835 558.644 857.702 563.711 850.502 567.311C843.302 570.911 832.002 585.478 827.502 592.811L737.502 737.811L718.002 729.311L700.002 762.811L671.502 814.311L650.002 868.811L536.002 876.311L514.502 839.311L498.502 819.311L490.502 760.811L544.502 737.811L588.002 760.811L630.002 762.811C631.669 756.811 639.002 741.811 635.002 737.811C630.002 732.811 630.002 686.811 635.002 671.811Z" fill="#1E3C38"/>
</g>
<g filter="url(#filter15_d_364_200)">
<path d="M736.502 733.813C734.502 734.313 718.002 720.813 718.002 720.813C718.002 720.813 690.002 777.813 681.502 792.313C673.002 806.813 646.002 850.313 635.002 853.313C624.002 856.313 596.002 849.813 589.502 851.313C583.002 852.813 579.002 866.313 574.002 868.813C569.002 871.313 461.502 863.813 461.502 863.813L388.002 913.811C388.002 913.811 374.502 924.311 373.502 931.813C372.502 939.315 380.502 1007.81 383.002 1014.31C385.502 1020.81 400.002 1046.31 405.002 1047.31C410.002 1048.31 449.102 1045.01 461.502 1043.81C473.902 1042.61 505.502 1034.31 514.502 1030.81C523.502 1027.31 543.502 1014.31 548.002 1014.31C552.502 1014.31 585.502 1014.71 593.502 1014.31C603.502 1013.81 615.502 1008.81 630.002 1005.31C644.502 1001.81 710.502 978.313 720.002 972.813C727.602 968.413 753.169 947.646 765.002 937.813L789.002 907.313L822.502 863.813C838.669 841.48 871.602 795.713 874.002 791.313C876.402 786.913 879.335 779.813 880.502 776.813C880.502 773.813 884.502 766.313 886.502 761.813C888.502 757.313 893.002 742.313 893.502 737.813C894.002 733.313 899.502 723.713 899.502 713.313C899.502 700.313 901.502 644.813 899.502 632.813C898.501 626.805 900.008 611.145 896.502 594.313C893.005 577.522 884.502 560.809 880.002 556.311C875.502 551.813 867.127 549.717 856.002 556.311C843.701 563.603 832.466 581.823 828.002 586.812C819.502 596.312 799.76 630.29 794.002 639.812C781.002 661.312 756.547 701.321 755.502 702.813C752.002 707.812 738.502 733.313 736.502 733.813Z" fill="#29504B"/>
</g>
<g filter="url(#filter16_d_364_200)">
<path d="M661.502 508.311C663.902 506.311 666.333 500.833 667.5 498.5C665 500 659.902 503.711 657.502 505.311C654.502 507.311 648.502 510.311 646.002 512.311C643.502 514.311 641.002 517.811 640.502 520.311C640.002 522.811 639.002 529.311 639.502 533.811C640.002 538.311 641.002 542.311 642.002 545.811C643.002 549.311 645.502 554.311 647.502 558.311C649.502 562.311 655.002 566.811 659.002 569.311C663.002 571.811 670.502 573.811 677.502 574.811C683.102 575.611 691.169 575.144 694.502 574.811L696.002 573.811L700.502 570.311L706.502 558.311C702.669 558.811 694.502 559.811 692.502 559.811C690.002 559.811 678.002 560.811 671.502 559.811C665.002 558.811 658.002 553.811 657.502 552.311C657.002 550.811 658.002 545.811 656.002 542.311C654.002 538.811 650.502 527.811 650.002 524.311C649.502 520.811 652.002 517.811 653.502 514.811C655.002 511.811 658.502 510.811 661.502 508.311Z" fill="#372C1D"/>
</g>
<g filter="url(#filter17_i_364_200)">
<path d="M770.502 330.811L757.502 292.311L706.002 263.311L663.002 220.811L606.502 251.811L587.502 298.811L583.502 338.811V397.311L615.502 450.311L642.502 474.811C645.169 475.144 651.202 476.011 654.002 476.811C657.502 477.811 664.502 477.811 673.502 476.811C682.502 475.811 702.002 468.311 709.502 464.311C715.502 461.111 721.669 455.978 724.002 453.811L757.502 404.311L770.502 330.811Z" fill="#FFD4A0"/>
</g>
<path d="M703.002 265.311C691.402 257.311 671.502 236.311 663.002 226.811C660.669 227.144 655.102 228.111 651.502 229.311C647.002 230.811 640.502 234.311 632.502 238.811C624.502 243.311 618.002 247.311 613.002 251.811C608.002 256.311 603.002 265.311 598.502 274.811C594.002 284.311 590.002 300.311 589.502 306.811C589.002 313.311 587.502 328.811 588.002 335.311C588.502 341.811 587.502 354.311 586.502 361.811C585.502 369.311 586.002 379.811 586.502 383.811C587.002 387.811 588.502 393.811 590.502 398.311C592.502 402.811 597.002 411.311 598.002 413.311C599.002 415.311 600.002 417.811 603.502 424.311C607.002 430.811 616.002 442.811 620.002 447.311C624.002 451.811 631.502 459.311 633.502 460.811C635.502 462.311 637.002 463.811 642.002 469.311C646.002 473.711 654.667 477 657 477.5C657 477.5 653.5 478 652 479C650.5 480 630.502 501.311 614.502 518.311C598.502 535.311 545 568 534.5 559.5C524 551 518.002 512.311 518.002 512.311L530.002 477.811C532.002 468.478 536.502 447.211 538.502 436.811C541.002 423.811 546.502 410.311 547.502 405.311C548.502 400.311 548.502 386.311 549.502 381.311C550.502 376.311 555.002 364.811 556.002 354.311C557.002 343.811 562.002 313.311 567.002 294.811C572.002 276.311 581.502 255.811 589.002 241.811C596.502 227.811 609.502 213.811 616.502 206.811C623.502 199.811 633.502 194.811 637.502 192.811C641.502 190.811 649.002 189.811 652.502 189.811C656.002 189.811 660.002 190.311 663.002 190.811C665.402 191.211 670.669 192.978 673.002 193.811C675.502 192.144 681.202 188.511 684.002 187.311C687.502 185.811 692.502 184.811 699.002 184.811C705.502 184.811 717.002 186.311 730.502 193.811C744.002 201.311 753.002 208.311 761.502 217.311C770.002 226.311 783.502 249.311 787.002 257.311C790.502 265.311 802.502 294.811 808.002 309.311C813.502 323.811 815.502 356.311 815.002 373.311C814.502 390.311 812.502 417.311 808.002 442.811C803.502 468.311 792.002 484.811 782.002 501.311C774.002 514.511 765.335 527.144 762.002 531.811C762.002 535.144 760.702 545.411 755.502 559.811C749.002 577.811 731.502 606.311 724.002 617.811C716.502 629.311 692.002 652.811 696.002 647.811C700.002 642.811 708.502 630.311 715.502 618.811C721.102 609.611 728.835 591.311 732.002 583.311C726.002 588.144 710.902 599.411 698.502 605.811C683.002 613.811 667.002 619.811 647.002 622.311C631.666 624.228 614.002 624.811 609.502 622.311C626.002 616.811 661.702 606.311 670.502 600.311C681.502 592.811 691.002 582.311 692.002 579.311C693.002 576.311 695.002 565.311 695.002 562.311C695.002 559.311 695.002 520.811 698.502 503.311C701.981 485.917 713.857 465.559 717.438 459.421L717.502 459.311C721.002 453.311 753.002 403.311 756.502 394.811C760.002 386.311 764.502 365.311 765.502 341.811C766.302 323.011 757.502 302.644 753.002 294.811C741.169 288.311 714.602 273.311 703.002 265.311Z" fill="#4A2122"/>
<g filter="url(#filter18_d_364_200)">
<path d="M532.002 510.811C530.002 511.611 528.502 511.811 528.002 511.811C526.169 510.978 524.275 510.22 521.002 509.811C517.002 509.311 511.502 508.811 507.502 508.811C505.002 508.811 502.502 508.811 497.502 509.311C494.22 509.639 488.669 509.644 486.002 509.311C484.502 508.144 482.502 506.811 480.502 505.311C477.835 503.311 476.502 502.311 474.502 500.311C472.734 498.543 466.002 489.811 463.002 486.811C460.002 483.811 456.002 477.811 451.502 474.811C449.641 473.57 446.002 472.811 444.002 473.311C442.002 473.811 440.502 477.311 439.502 479.811C438.502 482.311 437.502 486.811 437.502 491.811C437.502 496.811 437.192 505.83 437.502 508.311C438.002 512.311 439.502 516.311 440.502 520.311C441.502 524.311 441.002 528.311 440.502 533.811C440.002 539.311 437.502 545.311 435.502 549.811C433.502 554.311 427.002 561.811 427.002 562.811C427.002 563.811 428.502 568.811 430.002 570.811C431.502 572.811 433.002 577.311 433.002 579.311C433.002 581.311 430.002 582.811 430.002 583.811C430.002 584.811 432.002 585.811 432.002 587.311C432.002 588.811 429.002 591.311 428.502 593.311C428.002 595.311 435.502 596.311 435.502 597.811C435.502 599.311 430.002 603.311 430.002 605.311C430.002 607.311 433.002 610.311 433.002 614.811C433.002 619.311 430.002 622.811 430.002 624.811C430.002 626.811 434.002 630.811 434.002 633.811C434.002 636.211 431.335 640.811 430.002 642.811C427.835 644.644 423.302 649.211 422.502 652.811C421.502 657.311 422.502 664.311 421.502 667.811C420.502 671.311 416.502 677.311 416.502 685.811C416.502 696.311 421.002 709.811 423.502 716.311C426.002 722.811 435.502 731.811 436.502 739.311C437.502 746.811 436.002 761.311 439.002 765.811C444.002 768.311 450.002 773.311 456.002 778.811C462.002 784.311 468.502 788.811 469.502 791.811C470.302 794.211 469.835 796.144 469.502 796.811C474.835 803.978 485.802 818.411 487.002 818.811C488.502 819.311 501.002 828.811 505.002 832.311C508.202 835.111 516.669 842.478 520.502 845.811C520.002 843.311 518.902 838.011 518.502 836.811C518.002 835.311 515.002 827.311 513.502 822.811C512.002 818.311 509.502 811.311 506.502 804.811C504.102 799.611 501.835 791.978 501.002 788.811C501.335 787.644 502.002 784.411 502.002 780.811V769.811L505.002 767.811C507.502 765.811 513.002 761.211 515.002 758.811C517.502 755.811 526.002 749.811 531.502 747.311C535.902 745.311 542.335 746.478 545.002 747.311C547.335 748.478 552.802 751.511 556.002 754.311C559.202 757.111 562.002 760.478 563.002 761.811C566.335 762.978 574.002 765.611 578.002 766.811C583.002 768.311 588.502 770.311 592.502 773.311C596.502 776.311 600.502 781.311 605.002 782.311C608.602 783.111 642.502 769.811 642.502 767.811C642.502 765.811 633.702 761.511 632.502 760.311C631.302 759.111 630.335 753.478 630.002 750.811L626.502 747.311L622.002 738.311C621.602 737.511 618.502 735.978 617.002 735.311C614.169 729.978 607.502 717.911 603.502 712.311C598.502 705.311 595.002 693.311 594.002 685.811C593.002 678.311 595.002 664.811 592.502 657.311C590.502 651.311 586.669 643.478 585.002 640.311V633.811C585.002 632.311 583.002 624.311 582.502 621.811C582.002 619.311 579.502 614.311 578.502 612.811C577.702 611.611 574.169 609.311 572.502 608.311C572.669 607.478 573.102 605.711 573.502 605.311C574.002 604.811 574.502 601.811 574.002 599.311C573.502 596.811 573.002 594.311 573.502 591.311C574.002 588.311 574.502 580.811 574.502 578.311C574.502 575.811 574.502 566.311 573.502 564.311C572.502 562.311 569.002 556.811 569.002 555.811C569.002 555.011 568.669 550.811 568.502 548.811V541.311C568.502 540.111 568.169 534.811 568.002 532.311C568.502 531.811 569.602 530.511 570.002 529.311C570.402 528.111 570.502 526.144 570.502 525.311C571.669 522.478 574.202 516.211 575.002 513.811C576.002 510.811 577.502 501.311 577.502 498.811V491.811C577.502 490.811 576.002 487.811 575.002 486.811C574.002 485.811 573.002 485.811 570.502 485.811C568.002 485.811 565.002 487.811 562.002 489.811C559.602 491.411 545.669 502.811 539.002 508.311C537.502 508.811 534.002 510.011 532.002 510.811Z" fill="#FFB561"/>
</g>
<g filter="url(#filter19_d_364_200)">
<path d="M502.002 583.311C495.002 582.811 492.002 583.311 492.002 584.811C492.002 586.311 493.002 586.311 494.002 586.811C495.002 587.311 496.002 587.811 498.002 588.311C500.002 588.811 500.002 590.311 500.002 591.311V591.311C500.002 592.311 499.502 595.311 502.002 595.311C504.502 595.311 504.002 591.311 504.502 590.311C505.002 589.311 507.502 589.311 509.002 589.311C510.502 589.311 513.002 588.811 513.002 586.811C513.002 584.811 509.002 583.811 502.002 583.311Z" fill="#C2685B"/>
</g>
<g filter="url(#filter20_d_364_200)">
<path d="M496.502 825.311C488.502 818.911 480.502 814.311 475.002 812.811C469.502 811.311 460.502 813.811 445.002 822.811C429.502 831.811 415.502 850.311 415.502 850.311C417.335 851.644 418.202 853.211 419.002 854.811C420.002 856.811 420.502 869.811 422.002 877.311C423.502 884.811 426.002 892.311 427.002 897.811C428.002 903.311 428.002 910.811 429.502 915.811C431.002 920.811 439.502 928.311 442.502 933.811C445.502 939.311 454.502 950.811 456.002 952.811C457.502 954.811 459.502 958.811 462.002 960.311C464.502 961.811 465.002 960.811 467.002 961.811C469.002 962.811 471.002 963.311 474.002 964.811C477.002 966.311 481.502 968.311 484.502 968.811C486.902 969.211 488.835 967.978 489.502 967.311C494.002 969.811 503.602 975.011 506.002 975.811C509.002 976.811 513.502 975.811 515.002 974.811C516.502 973.811 516.002 972.311 517.002 972.811C518.002 973.311 524.502 977.811 527.002 978.811C529.002 979.611 531.835 979.144 533.002 978.811L538.002 980.811C540.502 981.811 542.002 980.811 543.502 979.811C544.702 979.011 545.002 977.478 545.002 976.811C546.335 977.478 549.302 979.011 550.502 979.811C552.002 980.811 554.502 979.811 556.002 978.811C557.502 977.811 558.502 975.311 558.502 973.811C558.502 972.311 559.502 967.811 557.002 961.811C554.502 955.811 551.877 953.311 550.002 950.811C548.502 948.811 546.002 944.811 544.502 942.811C543.002 940.811 540.652 937.051 538.002 932.811C535.502 928.811 534.275 925.811 531.002 921.311C527.002 915.811 523.793 911.434 521.502 907.311C519.002 902.811 513.906 891.332 513.502 889.311C513.002 886.811 513.335 880.644 513.502 877.311C514.169 878.644 515.429 880.774 516.502 881.311C517.502 881.811 519.835 882.644 520.502 883.311C522.335 884.478 526.502 887.311 528.502 889.311C531.002 891.811 539.502 897.811 543.502 902.811C547.502 907.811 556.002 909.311 562.002 909.811C568.002 910.311 572.002 909.311 576.002 906.811C579.202 904.811 580.002 899.978 580.002 897.811C574.502 895.478 563.202 890.511 562.002 889.311C560.502 887.811 557.502 882.811 556.002 881.311C554.502 879.811 547.502 875.311 546.002 873.811C544.502 872.311 537.002 863.811 535.502 861.811C534.002 859.811 533.002 857.311 528.502 852.811C524.002 848.311 506.502 833.311 496.502 825.311Z" fill="#FFD4A0"/>
</g>
<ellipse cx="553.411" cy="775.38" rx="9.20689" ry="8.80031" transform="rotate(28.397 553.411 775.38)" fill="#FFCC65"/>
<ellipse cx="338.03" cy="843.021" rx="6.56624" ry="12.4272" transform="rotate(2.1625 338.03 843.021)" fill="#FFCC65"/>
<ellipse cx="500.752" cy="1012.58" rx="12.6395" ry="10.7842" transform="rotate(33.7816 500.752 1012.58)" fill="#FFCC65"/>
<path d="M667.825 748.5C667.025 748.1 664.825 748.333 663.825 748.5C663.825 747.333 663.725 744.7 663.325 743.5C662.825 742 660.325 740.5 658.325 741C656.325 741.5 654.825 744 654.325 745.5C653.925 746.7 654.158 749.667 654.325 751C653.825 751.333 653.158 751.5 652.825 752.5C652.491 753.5 652.825 754 652.825 754.5C650.991 756.5 648.325 758.5 647.325 761C646.325 763.5 646.658 764.5 646.825 765L644.825 766C643.825 766.5 643.325 767 642.825 767.5C642.325 768 640.325 770.5 640.825 773C641.325 775.5 662.825 787 664.325 787C665.825 787 669.325 782 669.325 780C669.325 778 668.325 776.833 667.825 776C668.658 775.333 670.425 773.9 670.825 773.5C671.325 773 672.325 770.5 672.325 769V765.5C673.158 765.167 674.825 765 675.825 764C676.825 763 676.825 762 676.825 761C676.825 760.2 676.158 759.167 675.825 759C676.325 758.5 677.825 757.5 678.325 757C678.825 756.5 679.325 755.5 679.325 754C679.325 752.5 677.825 751 676.325 751C674.825 751 672.491 752.333 671.325 753C671.158 752.5 671.325 752 670.825 751C670.325 750 668.825 749 667.825 748.5Z" fill="#FFCC65"/>
<path d="M665.825 729C663.025 729 659.325 732.333 657.825 734L653.825 742C654.825 741.333 657.325 739.8 659.325 739C661.825 738 662.325 740 663.825 739C665.025 738.2 664.325 735.333 663.825 734H667.325C666.825 735.167 666.125 738 667.325 740C668.525 742 671.158 742.167 672.325 742C673.325 743.333 675.625 746.1 676.825 746.5C678.025 746.9 678.991 747.333 679.325 747.5C679.325 748.333 679.525 750.3 680.325 751.5C681.125 752.7 682.325 753 682.825 753L681.325 756.5V764C681.325 766 675.325 771.5 674.325 773.5C673.525 775.1 673.991 777.5 674.325 778.5C673.158 779.5 670.725 781.9 670.325 783.5C669.825 785.5 668.325 790 665.825 791.5C663.325 793 647.325 781 645.825 780C644.325 779 643.325 780 642.825 778.5C642.425 777.3 639.325 776.333 637.825 776L632.325 786C632.658 786.5 633.625 787.5 634.825 787.5H637.825L639.825 790C641.825 791.167 646.125 793.7 647.325 794.5C648.525 795.3 649.825 794.833 650.325 794.5C650.491 795.333 651.225 797.1 652.825 797.5C654.425 797.9 663.158 801.667 667.325 803.5C668.658 802.5 671.525 800.2 672.325 799C673.125 797.8 672.658 795.5 672.325 794.5C673.325 794.167 675.325 793.1 675.325 791.5V787.5C676.658 787 679.325 785.7 679.325 784.5V780L682.825 777C683.352 776.191 684.499 775.5 684.912 774C685.325 772.5 682.353 770.695 682.825 770C683.168 769.495 686.325 771 687.325 770.453C688.325 769.905 689.825 768 689.325 767C688.825 766 688.325 766 688.825 765C689.325 764 691.325 763.5 691.825 762C692.325 760.5 693.617 751.711 691.325 748C690.9 747.312 686.167 748.641 685.825 748C685.341 747.095 685.009 746.75 684.825 746C684.623 745.18 690.49 744.995 690.325 744.5C689.553 742.186 685.825 737.5 684.825 737.5C683.825 737.5 682.281 738.435 681.825 738C681.452 737.644 681.825 736 681.325 735C680.825 734 669.325 729 665.825 729Z" fill="#FFCC65"/>
<mask id="mask1_364_200" style="mask-type:alpha" maskUnits="userSpaceOnUse" x="415" y="812" width="166" height="170">
<path d="M496.502 825.311C488.502 818.911 480.502 814.311 475.002 812.811C469.502 811.311 460.502 813.811 445.002 822.811C429.502 831.811 415.502 850.311 415.502 850.311C417.335 851.644 418.202 853.211 419.002 854.811C420.002 856.811 420.502 869.811 422.002 877.311C423.502 884.811 426.002 892.311 427.002 897.811C428.002 903.311 428.002 910.811 429.502 915.811C431.002 920.811 439.502 928.311 442.502 933.811C445.502 939.311 454.502 950.811 456.002 952.811C457.502 954.811 459.502 958.811 462.002 960.311C464.502 961.811 465.002 960.811 467.002 961.811C469.002 962.811 471.002 963.311 474.002 964.811C477.002 966.311 481.502 968.311 484.502 968.811C486.902 969.211 488.835 967.978 489.502 967.311C494.002 969.811 503.602 975.011 506.002 975.811C509.002 976.811 513.502 975.811 515.002 974.811C516.502 973.811 516.002 972.311 517.002 972.811C518.002 973.311 524.502 977.811 527.002 978.811C529.002 979.611 531.835 979.144 533.002 978.811L538.002 980.811C540.502 981.811 542.002 980.811 543.502 979.811C544.702 979.011 545.002 977.478 545.002 976.811C546.335 977.478 549.302 979.011 550.502 979.811C552.002 980.811 554.502 979.811 556.002 978.811C557.502 977.811 558.502 975.311 558.502 973.811C558.502 972.311 559.502 967.811 557.002 961.811C554.502 955.811 551.877 953.311 550.002 950.811C548.502 948.811 546.002 944.811 544.502 942.811C543.002 940.811 540.652 937.051 538.002 932.811C535.502 928.811 534.275 925.811 531.002 921.311C527.002 915.811 523.793 911.434 521.502 907.311C519.002 902.811 513.906 891.332 513.502 889.311C513.002 886.811 513.335 880.644 513.502 877.311C514.169 878.644 515.429 880.774 516.502 881.311C517.502 881.811 519.835 882.644 520.502 883.311C522.335 884.478 526.502 887.311 528.502 889.311C531.002 891.811 539.502 897.811 543.502 902.811C547.502 907.811 556.002 909.311 562.002 909.811C568.002 910.311 572.002 909.311 576.002 906.811C579.202 904.811 580.002 899.978 580.002 897.811C574.502 895.478 563.202 890.511 562.002 889.311C560.502 887.811 557.502 882.811 556.002 881.311C554.502 879.811 547.502 875.311 546.002 873.811C544.502 872.311 537.002 863.811 535.502 861.811C534.002 859.811 533.002 857.311 528.502 852.811C524.002 848.311 506.502 833.311 496.502 825.311Z" fill="#FFDCA8"/>
</mask>
<g mask="url(#mask1_364_200)">
<g style="mix-blend-mode:multiply" filter="url(#filter21_f_364_200)">
<path d="M407.002 848.311L436.502 815.811L472.502 804.311C479.002 808.977 498.102 817.011 492.502 815.811C485.502 814.311 473.502 816.811 464.002 819.311C456.265 821.346 438.502 834.811 433.002 840.811C428.602 845.611 413.002 863.477 408.502 868.311L403.002 861.311L407.002 848.311Z" fill="#223354" fill-opacity="0.5"/>
</g>
</g>
</g>
</g>
<g filter="url(#filter22_d_364_200)">
<circle cx="904" cy="962" r="63" fill="white"/>
</g>
<g filter="url(#filter23_d_364_200)">
<circle cx="235" cy="296" r="73" fill="white"/>
</g>
<g filter="url(#filter24_d_364_200)">
<circle cx="352.5" cy="183.5" r="34.5" fill="white"/>
</g>
</g>
<defs>
<filter id="filter0_i_364_200" x="208.609" y="101.629" width="809.032" height="1008.94" filterUnits="userSpaceOnUse" color-interpolation-filters="sRGB">
<feFlood flood-opacity="0" result="BackgroundImageFix"/>
<feBlend mode="normal" in="SourceGraphic" in2="BackgroundImageFix" result="shape"/>
<feColorMatrix in="SourceAlpha" type="matrix" values="0 0 0 0 0 0 0 0 0 0 0 0 0 0 0 0 0 0 127 0" result="hardAlpha"/>
<feOffset dy="4"/>
<feGaussianBlur stdDeviation="25"/>
<feComposite in2="hardAlpha" operator="arithmetic" k2="-1" k3="1"/>
<feColorMatrix type="matrix" values="0 0 0 0 0.133333 0 0 0 0 0.2 0 0 0 0 0.329412 0 0 0 0.5 0"/>
<feBlend mode="multiply" in2="shape" result="effect1_innerShadow_364_200"/>
</filter>
<filter id="filter1_i_364_200" x="229.424" y="161.446" width="755.645" height="890.996" filterUnits="userSpaceOnUse" color-interpolation-filters="sRGB">
<feFlood flood-opacity="0" result="BackgroundImageFix"/>
<feBlend mode="normal" in="SourceGraphic" in2="BackgroundImageFix" result="shape"/>
<feColorMatrix in="SourceAlpha" type="matrix" values="0 0 0 0 0 0 0 0 0 0 0 0 0 0 0 0 0 0 127 0" result="hardAlpha"/>
<feOffset dy="4"/>
<feGaussianBlur stdDeviation="25"/>
<feComposite in2="hardAlpha" operator="arithmetic" k2="-1" k3="1"/>
<feColorMatrix type="matrix" values="0 0 0 0 0.133333 0 0 0 0 0.2 0 0 0 0 0.329412 0 0 0 0.5 0"/>
<feBlend mode="multiply" in2="shape" result="effect1_innerShadow_364_200"/>
</filter>
<filter id="filter2_i_364_200" x="336.302" y="234.217" width="576.508" height="680.721" filterUnits="userSpaceOnUse" color-interpolation-filters="sRGB">
<feFlood flood-opacity="0" result="BackgroundImageFix"/>
<feBlend mode="normal" in="SourceGraphic" in2="BackgroundImageFix" result="shape"/>
<feColorMatrix in="SourceAlpha" type="matrix" values="0 0 0 0 0 0 0 0 0 0 0 0 0 0 0 0 0 0 127 0" result="hardAlpha"/>
<feOffset dy="4"/>
<feGaussianBlur stdDeviation="25"/>
<feComposite in2="hardAlpha" operator="arithmetic" k2="-1" k3="1"/>
<feColorMatrix type="matrix" values="0 0 0 0 0.133333 0 0 0 0 0.2 0 0 0 0 0.329412 0 0 0 0.5 0"/>
<feBlend mode="multiply" in2="shape" result="effect1_innerShadow_364_200"/>
</filter>
<filter id="filter3_d_364_200" x="234.002" y="138.811" width="716.389" height="1022.5" filterUnits="userSpaceOnUse" color-interpolation-filters="sRGB">
<feFlood flood-opacity="0" result="BackgroundImageFix"/>
<feColorMatrix in="SourceAlpha" type="matrix" values="0 0 0 0 0 0 0 0 0 0 0 0 0 0 0 0 0 0 127 0" result="hardAlpha"/>
<feOffset dy="4"/>
<feGaussianBlur stdDeviation="25"/>
<feColorMatrix type="matrix" values="0 0 0 0 0.133333 0 0 0 0 0.2 0 0 0 0 0.329412 0 0 0 0.5 0"/>
<feBlend mode="multiply" in2="BackgroundImageFix" result="effect1_dropShadow_364_200"/>
<feBlend mode="normal" in="SourceGraphic" in2="effect1_dropShadow_364_200" result="shape"/>
</filter>
<filter id="filter4_d_364_200" x="545.002" y="455.311" width="147" height="150" filterUnits="userSpaceOnUse" color-interpolation-filters="sRGB">
<feFlood flood-opacity="0" result="BackgroundImageFix"/>
<feColorMatrix in="SourceAlpha" type="matrix" values="0 0 0 0 0 0 0 0 0 0 0 0 0 0 0 0 0 0 127 0" result="hardAlpha"/>
<feOffset dy="5"/>
<feGaussianBlur stdDeviation="7.5"/>
<feComposite in2="hardAlpha" operator="out"/>
<feColorMatrix type="matrix" values="0 0 0 0 0.133333 0 0 0 0 0.2 0 0 0 0 0.329412 0 0 0 0.5 0"/>
<feBlend mode="multiply" in2="BackgroundImageFix" result="effect1_dropShadow_364_200"/>
<feBlend mode="normal" in="SourceGraphic" in2="effect1_dropShadow_364_200" result="shape"/>
</filter>
<filter id="filter5_di_364_200" x="630.002" y="438.811" width="114" height="147.5" filterUnits="userSpaceOnUse" color-interpolation-filters="sRGB">
<feFlood flood-opacity="0" result="BackgroundImageFix"/>
<feColorMatrix in="SourceAlpha" type="matrix" values="0 0 0 0 0 0 0 0 0 0 0 0 0 0 0 0 0 0 127 0" result="hardAlpha"/>
<feOffset dy="5"/>
<feGaussianBlur stdDeviation="7.5"/>
<feComposite in2="hardAlpha" operator="out"/>
<feColorMatrix type="matrix" values="0 0 0 0 0.133333 0 0 0 0 0.2 0 0 0 0 0.329412 0 0 0 0.5 0"/>
<feBlend mode="multiply" in2="BackgroundImageFix" result="effect1_dropShadow_364_200"/>
<feBlend mode="normal" in="SourceGraphic" in2="effect1_dropShadow_364_200" result="shape"/>
<feColorMatrix in="SourceAlpha" type="matrix" values="0 0 0 0 0 0 0 0 0 0 0 0 0 0 0 0 0 0 127 0" result="hardAlpha"/>
<feOffset dx="-30" dy="30"/>
<feGaussianBlur stdDeviation="5"/>
<feComposite in2="hardAlpha" operator="arithmetic" k2="-1" k3="1"/>
<feColorMatrix type="matrix" values="0 0 0 0 0.133333 0 0 0 0 0.2 0 0 0 0 0.329412 0 0 0 0.25 0"/>
<feBlend mode="multiply" in2="shape" result="effect2_innerShadow_364_200"/>
</filter>
<filter id="filter6_d_364_200" x="338.002" y="904.811" width="59" height="79.0254" filterUnits="userSpaceOnUse" color-interpolation-filters="sRGB">
<feFlood flood-opacity="0" result="BackgroundImageFix"/>
<feColorMatrix in="SourceAlpha" type="matrix" values="0 0 0 0 0 0 0 0 0 0 0 0 0 0 0 0 0 0 127 0" result="hardAlpha"/>
<feOffset dy="5"/>
<feGaussianBlur stdDeviation="7.5"/>
<feComposite in2="hardAlpha" operator="out"/>
<feColorMatrix type="matrix" values="0 0 0 0 0.133333 0 0 0 0 0.2 0 0 0 0 0.329412 0 0 0 0.5 0"/>
<feBlend mode="multiply" in2="BackgroundImageFix" result="effect1_dropShadow_364_200"/>
<feBlend mode="normal" in="SourceGraphic" in2="effect1_dropShadow_364_200" result="shape"/>
</filter>
<filter id="filter7_d_364_200" x="337.002" y="797.811" width="145" height="146.744" filterUnits="userSpaceOnUse" color-interpolation-filters="sRGB">
<feFlood flood-opacity="0" result="BackgroundImageFix"/>
<feColorMatrix in="SourceAlpha" type="matrix" values="0 0 0 0 0 0 0 0 0 0 0 0 0 0 0 0 0 0 127 0" result="hardAlpha"/>
<feOffset dy="5"/>
<feGaussianBlur stdDeviation="7.5"/>
<feComposite in2="hardAlpha" operator="out"/>
<feColorMatrix type="matrix" values="0 0 0 0 0.133333 0 0 0 0 0.2 0 0 0 0 0.329412 0 0 0 0.5 0"/>
<feBlend mode="multiply" in2="BackgroundImageFix" result="effect1_dropShadow_364_200"/>
<feBlend mode="normal" in="SourceGraphic" in2="effect1_dropShadow_364_200" result="shape"/>
</filter>
<filter id="filter8_d_364_200" x="287.502" y="951.311" width="240.5" height="176" filterUnits="userSpaceOnUse" color-interpolation-filters="sRGB">
<feFlood flood-opacity="0" result="BackgroundImageFix"/>
<feColorMatrix in="SourceAlpha" type="matrix" values="0 0 0 0 0 0 0 0 0 0 0 0 0 0 0 0 0 0 127 0" result="hardAlpha"/>
<feOffset dy="5"/>
<feGaussianBlur stdDeviation="7.5"/>
<feComposite in2="hardAlpha" operator="out"/>
<feColorMatrix type="matrix" values="0 0 0 0 0.133333 0 0 0 0 0.2 0 0 0 0 0.329412 0 0 0 0.5 0"/>
<feBlend mode="multiply" in2="BackgroundImageFix" result="effect1_dropShadow_364_200"/>
<feBlend mode="normal" in="SourceGraphic" in2="effect1_dropShadow_364_200" result="shape"/>
</filter>
<filter id="filter9_d_364_200" x="318.401" y="608.811" width="190.601" height="331" filterUnits="userSpaceOnUse" color-interpolation-filters="sRGB">
<feFlood flood-opacity="0" result="BackgroundImageFix"/>
<feColorMatrix in="SourceAlpha" type="matrix" values="0 0 0 0 0 0 0 0 0 0 0 0 0 0 0 0 0 0 127 0" result="hardAlpha"/>
<feOffset dy="5"/>
<feGaussianBlur stdDeviation="7.5"/>
<feComposite in2="hardAlpha" operator="out"/>
<feColorMatrix type="matrix" values="0 0 0 0 0.133333 0 0 0 0 0.2 0 0 0 0 0.329412 0 0 0 0.5 0"/>
<feBlend mode="multiply" in2="BackgroundImageFix" result="effect1_dropShadow_364_200"/>
<feBlend mode="normal" in="SourceGraphic" in2="effect1_dropShadow_364_200" result="shape"/>
</filter>
<filter id="filter10_d_364_200" x="269.002" y="962.811" width="152.013" height="157.5" filterUnits="userSpaceOnUse" color-interpolation-filters="sRGB">
<feFlood flood-opacity="0" result="BackgroundImageFix"/>
<feColorMatrix in="SourceAlpha" type="matrix" values="0 0 0 0 0 0 0 0 0 0 0 0 0 0 0 0 0 0 127 0" result="hardAlpha"/>
<feOffset dy="5"/>
<feGaussianBlur stdDeviation="7.5"/>
<feComposite in2="hardAlpha" operator="out"/>
<feColorMatrix type="matrix" values="0 0 0 0 0.133333 0 0 0 0 0.2 0 0 0 0 0.329412 0 0 0 0.5 0"/>
<feBlend mode="multiply" in2="BackgroundImageFix" result="effect1_dropShadow_364_200"/>
<feBlend mode="normal" in="SourceGraphic" in2="effect1_dropShadow_364_200" result="shape"/>
</filter>
<filter id="filter11_d_364_200" x="458.002" y="908.811" width="329.543" height="214.5" filterUnits="userSpaceOnUse" color-interpolation-filters="sRGB">
<feFlood flood-opacity="0" result="BackgroundImageFix"/>
<feColorMatrix in="SourceAlpha" type="matrix" values="0 0 0 0 0 0 0 0 0 0 0 0 0 0 0 0 0 0 127 0" result="hardAlpha"/>
<feOffset dy="5"/>
<feGaussianBlur stdDeviation="7.5"/>
<feComposite in2="hardAlpha" operator="out"/>
<feColorMatrix type="matrix" values="0 0 0 0 0.133333 0 0 0 0 0.2 0 0 0 0 0.329412 0 0 0 0.5 0"/>
<feBlend mode="multiply" in2="BackgroundImageFix" result="effect1_dropShadow_364_200"/>
<feBlend mode="normal" in="SourceGraphic" in2="effect1_dropShadow_364_200" result="shape"/>
</filter>
<filter id="filter12_d_364_200" x="754.653" y="344.377" width="119.759" height="233.291" filterUnits="userSpaceOnUse" color-interpolation-filters="sRGB">
<feFlood flood-opacity="0" result="BackgroundImageFix"/>
<feColorMatrix in="SourceAlpha" type="matrix" values="0 0 0 0 0 0 0 0 0 0 0 0 0 0 0 0 0 0 127 0" result="hardAlpha"/>
<feOffset dy="5"/>
<feGaussianBlur stdDeviation="7.5"/>
<feComposite in2="hardAlpha" operator="out"/>
<feColorMatrix type="matrix" values="0 0 0 0 0.133333 0 0 0 0 0.2 0 0 0 0 0.329412 0 0 0 0.5 0"/>
<feBlend mode="multiply" in2="BackgroundImageFix" result="effect1_dropShadow_364_200"/>
<feBlend mode="normal" in="SourceGraphic" in2="effect1_dropShadow_364_200" result="shape"/>
</filter>
<filter id="filter13_d_364_200" x="550.502" y="500.811" width="183" height="289" filterUnits="userSpaceOnUse" color-interpolation-filters="sRGB">
<feFlood flood-opacity="0" result="BackgroundImageFix"/>
<feColorMatrix in="SourceAlpha" type="matrix" values="0 0 0 0 0 0 0 0 0 0 0 0 0 0 0 0 0 0 127 0" result="hardAlpha"/>
<feOffset dy="5"/>
<feGaussianBlur stdDeviation="7.5"/>
<feComposite in2="hardAlpha" operator="out"/>
<feColorMatrix type="matrix" values="0 0 0 0 0.133333 0 0 0 0 0.2 0 0 0 0 0.329412 0 0 0 0.5 0"/>
<feBlend mode="multiply" in2="BackgroundImageFix" result="effect1_dropShadow_364_200"/>
<feBlend mode="normal" in="SourceGraphic" in2="effect1_dropShadow_364_200" result="shape"/>
</filter>
<filter id="filter14_d_364_200" x="465.502" y="463.311" width="418" height="433" filterUnits="userSpaceOnUse" color-interpolation-filters="sRGB">
<feFlood flood-opacity="0" result="BackgroundImageFix"/>
<feColorMatrix in="SourceAlpha" type="matrix" values="0 0 0 0 0 0 0 0 0 0 0 0 0 0 0 0 0 0 127 0" result="hardAlpha"/>
<feOffset dx="-10" dy="5"/>
<feGaussianBlur stdDeviation="7.5"/>
<feComposite in2="hardAlpha" operator="out"/>
<feColorMatrix type="matrix" values="0 0 0 0 0.133333 0 0 0 0 0.2 0 0 0 0 0.329412 0 0 0 0.25 0"/>
<feBlend mode="multiply" in2="BackgroundImageFix" result="effect1_dropShadow_364_200"/>
<feBlend mode="normal" in="SourceGraphic" in2="effect1_dropShadow_364_200" result="shape"/>
</filter>
<filter id="filter15_d_364_200" x="358.416" y="542.115" width="556.975" height="525.384" filterUnits="userSpaceOnUse" color-interpolation-filters="sRGB">
<feFlood flood-opacity="0" result="BackgroundImageFix"/>
<feColorMatrix in="SourceAlpha" type="matrix" values="0 0 0 0 0 0 0 0 0 0 0 0 0 0 0 0 0 0 127 0" result="hardAlpha"/>
<feOffset dy="5"/>
<feGaussianBlur stdDeviation="7.5"/>
<feComposite in2="hardAlpha" operator="out"/>
<feColorMatrix type="matrix" values="0 0 0 0 0.133333 0 0 0 0 0.2 0 0 0 0 0.329412 0 0 0 0.5 0"/>
<feBlend mode="multiply" in2="BackgroundImageFix" result="effect1_dropShadow_364_200"/>
<feBlend mode="normal" in="SourceGraphic" in2="effect1_dropShadow_364_200" result="shape"/>
</filter>
<filter id="filter16_d_364_200" x="624.366" y="488.5" width="97.1362" height="106.753" filterUnits="userSpaceOnUse" color-interpolation-filters="sRGB">
<feFlood flood-opacity="0" result="BackgroundImageFix"/>
<feColorMatrix in="SourceAlpha" type="matrix" values="0 0 0 0 0 0 0 0 0 0 0 0 0 0 0 0 0 0 127 0" result="hardAlpha"/>
<feOffset dy="5"/>
<feGaussianBlur stdDeviation="7.5"/>
<feComposite in2="hardAlpha" operator="out"/>
<feColorMatrix type="matrix" values="0 0 0 0 0.133333 0 0 0 0 0.2 0 0 0 0 0.329412 0 0 0 0.5 0"/>
<feBlend mode="multiply" in2="BackgroundImageFix" result="effect1_dropShadow_364_200"/>
<feBlend mode="normal" in="SourceGraphic" in2="effect1_dropShadow_364_200" result="shape"/>
</filter>
<filter id="filter17_i_364_200" x="583.502" y="220.811" width="187" height="260.75" filterUnits="userSpaceOnUse" color-interpolation-filters="sRGB">
<feFlood flood-opacity="0" result="BackgroundImageFix"/>
<feBlend mode="normal" in="SourceGraphic" in2="BackgroundImageFix" result="shape"/>
<feColorMatrix in="SourceAlpha" type="matrix" values="0 0 0 0 0 0 0 0 0 0 0 0 0 0 0 0 0 0 127 0" result="hardAlpha"/>
<feOffset dy="4"/>
<feGaussianBlur stdDeviation="12.5"/>
<feComposite in2="hardAlpha" operator="arithmetic" k2="-1" k3="1"/>
<feColorMatrix type="matrix" values="0 0 0 0 0.133333 0 0 0 0 0.2 0 0 0 0 0.329412 0 0 0 0.5 0"/>
<feBlend mode="multiply" in2="shape" result="effect1_innerShadow_364_200"/>
</filter>
<filter id="filter18_d_364_200" x="406.502" y="463.155" width="246" height="392.656" filterUnits="userSpaceOnUse" color-interpolation-filters="sRGB">
<feFlood flood-opacity="0" result="BackgroundImageFix"/>
<feColorMatrix in="SourceAlpha" type="matrix" values="0 0 0 0 0 0 0 0 0 0 0 0 0 0 0 0 0 0 127 0" result="hardAlpha"/>
<feOffset/>
<feGaussianBlur stdDeviation="5"/>
<feComposite in2="hardAlpha" operator="out"/>
<feColorMatrix type="matrix" values="0 0 0 0 0.133333 0 0 0 0 0.2 0 0 0 0 0.329412 0 0 0 0.25 0"/>
<feBlend mode="multiply" in2="BackgroundImageFix" result="effect1_dropShadow_364_200"/>
<feBlend mode="normal" in="SourceGraphic" in2="effect1_dropShadow_364_200" result="shape"/>
</filter>
<filter id="filter19_d_364_200" x="491.002" y="583.124" width="23" height="14.1875" filterUnits="userSpaceOnUse" color-interpolation-filters="sRGB">
<feFlood flood-opacity="0" result="BackgroundImageFix"/>
<feColorMatrix in="SourceAlpha" type="matrix" values="0 0 0 0 0 0 0 0 0 0 0 0 0 0 0 0 0 0 127 0" result="hardAlpha"/>
<feOffset dy="1"/>
<feGaussianBlur stdDeviation="0.5"/>
<feComposite in2="hardAlpha" operator="out"/>
<feColorMatrix type="matrix" values="0 0 0 0 0.133333 0 0 0 0 0.2 0 0 0 0 0.329412 0 0 0 0.25 0"/>
<feBlend mode="multiply" in2="BackgroundImageFix" result="effect1_dropShadow_364_200"/>
<feBlend mode="normal" in="SourceGraphic" in2="effect1_dropShadow_364_200" result="shape"/>
</filter>
<filter id="filter20_d_364_200" x="390.502" y="797.404" width="214.5" height="218.821" filterUnits="userSpaceOnUse" color-interpolation-filters="sRGB">
<feFlood flood-opacity="0" result="BackgroundImageFix"/>
<feColorMatrix in="SourceAlpha" type="matrix" values="0 0 0 0 0 0 0 0 0 0 0 0 0 0 0 0 0 0 127 0" result="hardAlpha"/>
<feOffset dy="10"/>
<feGaussianBlur stdDeviation="12.5"/>
<feComposite in2="hardAlpha" operator="out"/>
<feColorMatrix type="matrix" values="0 0 0 0 0.133333 0 0 0 0 0.2 0 0 0 0 0.329412 0 0 0 0.5 0"/>
<feBlend mode="multiply" in2="BackgroundImageFix" result="effect1_dropShadow_364_200"/>
<feBlend mode="normal" in="SourceGraphic" in2="effect1_dropShadow_364_200" result="shape"/>
</filter>
<filter id="filter21_f_364_200" x="393.002" y="794.311" width="110.515" height="84" filterUnits="userSpaceOnUse" color-interpolation-filters="sRGB">
<feFlood flood-opacity="0" result="BackgroundImageFix"/>
<feBlend mode="normal" in="SourceGraphic" in2="BackgroundImageFix" result="shape"/>
<feGaussianBlur stdDeviation="5" result="effect1_foregroundBlur_364_200"/>
</filter>
<filter id="filter22_d_364_200" x="791" y="853" width="226" height="226" filterUnits="userSpaceOnUse" color-interpolation-filters="sRGB">
<feFlood flood-opacity="0" result="BackgroundImageFix"/>
<feColorMatrix in="SourceAlpha" type="matrix" values="0 0 0 0 0 0 0 0 0 0 0 0 0 0 0 0 0 0 127 0" result="hardAlpha"/>
<feOffset dy="4"/>
<feGaussianBlur stdDeviation="25"/>
<feComposite in2="hardAlpha" operator="out"/>
<feColorMatrix type="matrix" values="0 0 0 0 0.133333 0 0 0 0 0.2 0 0 0 0 0.329412 0 0 0 0.25 0"/>
<feBlend mode="multiply" in2="BackgroundImageFix" result="effect1_dropShadow_364_200"/>
<feBlend mode="normal" in="SourceGraphic" in2="effect1_dropShadow_364_200" result="shape"/>
</filter>
<filter id="filter23_d_364_200" x="112" y="177" width="246" height="246" filterUnits="userSpaceOnUse" color-interpolation-filters="sRGB">
<feFlood flood-opacity="0" result="BackgroundImageFix"/>
<feColorMatrix in="SourceAlpha" type="matrix" values="0 0 0 0 0 0 0 0 0 0 0 0 0 0 0 0 0 0 127 0" result="hardAlpha"/>
<feOffset dy="4"/>
<feGaussianBlur stdDeviation="25"/>
<feComposite in2="hardAlpha" operator="out"/>
<feColorMatrix type="matrix" values="0 0 0 0 0.133333 0 0 0 0 0.2 0 0 0 0 0.329412 0 0 0 0.25 0"/>
<feBlend mode="multiply" in2="BackgroundImageFix" result="effect1_dropShadow_364_200"/>
<feBlend mode="normal" in="SourceGraphic" in2="effect1_dropShadow_364_200" result="shape"/>
</filter>
<filter id="filter24_d_364_200" x="268" y="103" width="169" height="169" filterUnits="userSpaceOnUse" color-interpolation-filters="sRGB">
<feFlood flood-opacity="0" result="BackgroundImageFix"/>
<feColorMatrix in="SourceAlpha" type="matrix" values="0 0 0 0 0 0 0 0 0 0 0 0 0 0 0 0 0 0 127 0" result="hardAlpha"/>
<feOffset dy="4"/>
<feGaussianBlur stdDeviation="25"/>
<feComposite in2="hardAlpha" operator="out"/>
<feColorMatrix type="matrix" values="0 0 0 0 0.133333 0 0 0 0 0.2 0 0 0 0 0.329412 0 0 0 0.25 0"/>
<feBlend mode="multiply" in2="BackgroundImageFix" result="effect1_dropShadow_364_200"/>
<feBlend mode="normal" in="SourceGraphic" in2="effect1_dropShadow_364_200" result="shape"/>
</filter>
<clipPath id="clip0_364_200">
<rect width="1200" height="1200" fill="white"/>
</clipPath>
</defs>
</svg>
